<svg style="fill: white" viewBox="0 0 21 21" version="1.1" xmlns="http://www.w3.org/2000/svg" xmlns:xlink="http://www.w3.org/1999/xlink">
  <path d="M-1.25222251,15.6034197 C-1.35251927,15.6936868 -1.42523333,15.7989968 -1.47036687,15.9193529 C-1.51550041,16.039709 -1.53806684,16.1600633 -1.53806684,16.2804194 C-1.53806684,16.4007755 -1.51550041,16.5211298 -1.47036687,16.6414859 C-1.42523333,16.761842 -1.35251927,16.867152 -1.25222251,16.9574191 L3.56199771,21.7716393 C3.75256155,21.9622032 3.98073324,22.0574837 4.24651965,22.0574837 C4.51230605,22.0574837 4.73546299,21.9622032 4.91599715,21.7716393 C5.10656098,21.5810755 5.20184147,21.3554112 5.20184147,21.0946396 C5.20184147,20.833868 5.10656098,20.6082037 4.91599715,20.4176399 L1.75666513,17.2432634 L10.0160617,17.2432634 C10.2868629,17.2432634 10.5150346,17.1504903 10.7005836,16.9649413 C10.8861326,16.7793923 10.9789057,16.5512206 10.9789057,16.2804194 C10.9789057,16.0096182 10.8861326,15.7814465 10.7005836,15.5958975 C10.5150346,15.4103485 10.2868629,15.3175753 10.0160617,15.3175753 L1.75666513,15.3175753 L4.91599715,12.1431989 C5.10656098,11.9526351 5.20184147,11.7269707 5.20184147,11.4661992 C5.20184147,11.2054276 5.10656098,10.9797633 4.91599715,10.7891995 C4.73546299,10.5986356 4.51230605,10.5033551 4.24651965,10.5033551 C3.98073324,10.5033551 3.75256155,10.5986356 3.56199771,10.7891995 L-1.25222251,15.6034197 Z" id="x" transform="translate(4.720419, 16.280419) rotate(-45.000000) translate(-4.720419, -16.280419) "></path>
  <path d="M10.3077774,4.04341973 C10.2074807,4.13368681 10.1347666,4.23899683 10.0896331,4.35935293 C10.0444995,4.47970904 10.0219331,4.60006334 10.0219331,4.72041945 C10.0219331,4.84077556 10.0444995,4.96112986 10.0896331,5.08148597 C10.1347666,5.20184207 10.2074807,5.30715209 10.3077774,5.39741917 L15.1219977,10.2116394 C15.3125615,10.4022032 15.5407332,10.4974837 15.8065196,10.4974837 C16.072306,10.4974837 16.2954629,10.4022032 16.4759971,10.2116394 C16.6665609,10.0210756 16.7618414,9.79541124 16.7618414,9.53463967 C16.7618414,9.27386811 16.6665609,9.04820379 16.4759971,8.85763995 L13.3166651,5.68326349 L21.5760616,5.68326349 C21.8468629,5.68326349 22.0750346,5.59049039 22.2605836,5.40494139 C22.4461326,5.21939239 22.5389057,4.99122069 22.5389057,4.72041945 C22.5389057,4.44961821 22.4461326,4.22144651 22.2605836,4.03589751 C22.0750346,3.85034851 21.8468629,3.75757541 21.5760616,3.75757541 L13.3166651,3.75757541 L16.4759971,0.583198947 C16.6665609,0.392635111 16.7618414,0.166970794 16.7618414,-0.0938007715 C16.7618414,-0.354572337 16.6665609,-0.580236654 16.4759971,-0.77080049 C16.2954629,-0.961364327 16.072306,-1.05664482 15.8065196,-1.05664482 C15.5407332,-1.05664482 15.3125615,-0.961364327 15.1219977,-0.77080049 L10.3077774,4.04341973 Z" id="x" transform="translate(16.280419, 4.720419) rotate(-225.000000) translate(-16.280419, -4.720419) "></path>
</svg>
